<svg xmlns="http://www.w3.org/2000/svg" viewBox="0 0 140.68 140.68"><defs><style>.cls-1{fill:#00aae1;}</style></defs><g id="Layer_1" data-name="Layer 1"><path class="cls-1" d="M14.39,59.65A3.64,3.64,0,0,1,12.27,59a3.49,3.49,0,0,1-1.33-1.69L.28,25.31a5.63,5.63,0,0,1,0-3.64c.4-.93,1.3-1.4,2.7-1.4A3.4,3.4,0,0,1,5.28,21a5.46,5.46,0,0,1,1.48,2.56L15.83,52H13.31L21.88,23a4.19,4.19,0,0,1,1.22-2,3.52,3.52,0,0,1,2.38-.75,3.53,3.53,0,0,1,2.34.75A3.61,3.61,0,0,1,29,23l7,27.22H34.91l8.5-26.64q1-3.31,3.74-3.31a2.79,2.79,0,0,1,2.74,1.4,4.6,4.6,0,0,1-.07,3.64l-10.66,32A3.16,3.16,0,0,1,37.94,59a3.63,3.63,0,0,1-2.16.68A3.81,3.81,0,0,1,33.62,59a3,3,0,0,1-1.3-1.69L24.9,29.84h.72L17.85,57.28A3.09,3.09,0,0,1,16.59,59,3.77,3.77,0,0,1,14.39,59.65Z"/><path class="cls-1" d="M74.8,59.94a21.62,21.62,0,0,1-10.62-2.56,18.6,18.6,0,0,1-7.27-7.05A20.14,20.14,0,0,1,54.28,40a21.15,21.15,0,0,1,2.49-10.41,18.05,18.05,0,0,1,6.87-7A19.62,19.62,0,0,1,73.72,20a18.11,18.11,0,0,1,9.65,2.48,16.17,16.17,0,0,1,6.15,6.84,22.64,22.64,0,0,1,2.13,10.05,3,3,0,0,1-.94,2.27,3.27,3.27,0,0,1-2.37.9h-29V36.76h28.8l-3,2a15.43,15.43,0,0,0-1.44-6.44,10.51,10.51,0,0,0-10-6.16,13.09,13.09,0,0,0-7,1.8,11.68,11.68,0,0,0-4.43,4.93A16.26,16.26,0,0,0,60.76,40a13.75,13.75,0,0,0,1.8,7,13.14,13.14,0,0,0,5,4.9,14.44,14.44,0,0,0,7.27,1.8,13.69,13.69,0,0,0,4.57-.83A14.14,14.14,0,0,0,83.15,51a4.11,4.11,0,0,1,2.34-.83,3.18,3.18,0,0,1,2.2.76A3.39,3.39,0,0,1,89,53.32a2.55,2.55,0,0,1-1.15,2.23,20.13,20.13,0,0,1-6.08,3.17A22,22,0,0,1,74.8,59.94Z"/><path class="cls-1" d="M120.81,59.94a19.48,19.48,0,0,1-10.08-2.63,19.25,19.25,0,0,1-7.06-7.16A20.8,20.8,0,0,1,101,39.92V7.09a3.55,3.55,0,0,1,1-2.66,3.65,3.65,0,0,1,2.63-1,3.6,3.6,0,0,1,2.66,1,3.57,3.57,0,0,1,1,2.66V26.53a18.64,18.64,0,0,1,6.09-4.79,18.22,18.22,0,0,1,17.24.87,18.72,18.72,0,0,1,6.59,7.13,21.17,21.17,0,0,1,2.41,10.18,20.06,20.06,0,0,1-2.63,10.23,19.39,19.39,0,0,1-17.24,9.79Zm0-6.48a12.33,12.33,0,0,0,6.55-1.76,12.81,12.81,0,0,0,4.57-4.86,14.18,14.18,0,0,0,1.69-6.92A13.9,13.9,0,0,0,131.93,33a13,13,0,0,0-4.57-4.79,13,13,0,0,0-13.07,0A12.59,12.59,0,0,0,109.72,33a14.21,14.21,0,0,0-1.66,6.91,14.5,14.5,0,0,0,1.66,6.92,12.31,12.31,0,0,0,11.09,6.62Z"/><path class="cls-1" d="M23.25,120.7a17.35,17.35,0,0,1-9.43-2.63,18.72,18.72,0,0,1-6.59-7.13,21.17,21.17,0,0,1-2.41-10.18A20.06,20.06,0,0,1,7.45,90.53a19.43,19.43,0,0,1,7.13-7.16,19.69,19.69,0,0,1,10.11-2.63,19.38,19.38,0,0,1,17.17,9.79,20,20,0,0,1,2.63,10.23H41.68a21.17,21.17,0,0,1-2.41,10.18,18.64,18.64,0,0,1-6.59,7.13A17.32,17.32,0,0,1,23.25,120.7Zm1.44-6.48a12.33,12.33,0,0,0,6.55-1.76,12.57,12.57,0,0,0,4.54-4.83,14.25,14.25,0,0,0,1.66-6.87,14.4,14.4,0,0,0-1.66-7A12.57,12.57,0,0,0,31.24,89a12.33,12.33,0,0,0-6.55-1.76A12.36,12.36,0,0,0,18.18,89a12.74,12.74,0,0,0-4.61,4.83,14.08,14.08,0,0,0-1.69,7,13.93,13.93,0,0,0,1.69,6.87,12.74,12.74,0,0,0,4.61,4.83A12.36,12.36,0,0,0,24.69,114.22Zm16.13,6.26a3.55,3.55,0,0,1-2.63-1,3.59,3.59,0,0,1-1-2.63v-11l1.37-7.64,6,2.6v16a3.59,3.59,0,0,1-1,2.63A3.55,3.55,0,0,1,40.82,120.48Z"/><path class="cls-1" d="M59.11,137.26a3.56,3.56,0,0,1-3.67-3.67V100.76A20.69,20.69,0,0,1,58.1,90.53a19.25,19.25,0,0,1,7.06-7.16,19.87,19.87,0,0,1,27.32,7.16,20.06,20.06,0,0,1,2.63,10.23,21.29,21.29,0,0,1-2.41,10.18,18.72,18.72,0,0,1-6.59,7.13,18.24,18.24,0,0,1-17.25.87,18.71,18.71,0,0,1-6.08-4.79v19.44a3.66,3.66,0,0,1-1,2.63A3.55,3.55,0,0,1,59.11,137.26Zm16.13-23a12.35,12.35,0,0,0,6.55-1.76,12.87,12.87,0,0,0,4.57-4.83,13.93,13.93,0,0,0,1.69-6.87,14.08,14.08,0,0,0-1.69-7A12.87,12.87,0,0,0,81.79,89a13,13,0,0,0-13.07,0,12.49,12.49,0,0,0-4.57,4.83,14.28,14.28,0,0,0-1.66,7,14.13,14.13,0,0,0,1.66,6.87,12.35,12.35,0,0,0,11.09,6.59Z"/><path class="cls-1" d="M120.38,120.7a27.24,27.24,0,0,1-9.32-1.55,17.82,17.82,0,0,1-6.66-3.92,3.15,3.15,0,0,1-.9-2.63,3.41,3.41,0,0,1,1.4-2.41,3.74,3.74,0,0,1,2.84-1,3.93,3.93,0,0,1,2.42,1.26,11.34,11.34,0,0,0,3.92,2.55,14.79,14.79,0,0,0,6,1.19,12.16,12.16,0,0,0,6.37-1.37,4.23,4.23,0,0,0,2.27-3.53,4.4,4.4,0,0,0-2-3.74q-2.13-1.59-7.74-2.59-7.27-1.44-10.55-4.32a9,9,0,0,1-3.27-7.06,8.77,8.77,0,0,1,2.16-6.08,13,13,0,0,1,5.54-3.6,21.19,21.19,0,0,1,7.06-1.19,22,22,0,0,1,8.42,1.51,14.33,14.33,0,0,1,5.83,4.18,3.37,3.37,0,0,1,.94,2.41A2.78,2.78,0,0,1,133.84,91a3.52,3.52,0,0,1-2.73.51,5.17,5.17,0,0,1-2.67-1.3,9.78,9.78,0,0,0-3.88-2.37,16.13,16.13,0,0,0-4.83-.65,12,12,0,0,0-5.36,1.08,3.4,3.4,0,0,0-2.2,3.17,4.17,4.17,0,0,0,.69,2.34,5.72,5.72,0,0,0,2.7,1.87,34.92,34.92,0,0,0,5.9,1.62A32.28,32.28,0,0,1,130,100a11.37,11.37,0,0,1,4.5,3.86,9.39,9.39,0,0,1,1.37,5.07,10.65,10.65,0,0,1-1.76,6,12.25,12.25,0,0,1-5.19,4.25A20.37,20.37,0,0,1,120.38,120.7Z"/></g></svg>